<svg xmlns="http://www.w3.org/2000/svg" viewBox="0 0 490.72 407.47"><defs><style>.a{fill:#88cad6;}.b{fill:#d8edf2;}.c{fill:#236f7d;}.d{fill:#234d58;}.e{fill:#90d1f2;}.f{fill:#359ad3;}</style></defs><path class="a" d="M480,130.71c7.07,1.19,12.46,4.64,15.32,11.45v8.61c-3.13,5.89-8.18,9-14.5,10.95-6.77,2-13.31,4.8-20,7.24-9.45,4.67-19.22,8.43-29.65,10.31l-36.81,13.31c-.82,1.58-2.42,2-3.91,2.51-22.82,8.19-45.7,16.19-68.54,24.34-21.33,7.61-42.63,15.3-64.07,22.63-2.21.76-4.43,2-6.92.89a3.32,3.32,0,0,1-1-1.33,184.26,184.26,0,0,1-.14-28.29,4.61,4.61,0,0,1,.69-1.45c5.85-3.76,12.66-5.19,19.09-7.48q46.45-16.52,92.93-33c35.33-12.53,70.69-25,106-37.72C472.3,132.37,476,130.77,480,130.71Z" transform="translate(-4.64 -50.24)"/><path class="b" d="M251,212.35l-.06,30c-2.19,2.28-4.5.75-6.65.08-13.85-4.36-27.41-9.52-41.09-14.36q-40.58-14.36-81.13-28.77c-4.36-1.55-8.64-3.3-13-4.72a5.56,5.56,0,0,1-3.46-2.37c-29.09-10.35-58.13-20.8-87.28-31-6.21-2.16-11.16-5.21-13.65-11.48v-7.65c3.05-5.72,7.14-10.06,14.07-10.68,5.46-.26,10.21,2.28,15.1,4,22.24,8,44.58,15.58,66.88,23.34q73.23,25.49,146.43,51.05C248.58,210.41,250.31,210.59,251,212.35Z" transform="translate(-4.64 -50.24)"/><path class="a" d="M105.57,192.25l111,39.25c9.13,3.23,18.25,6.5,27.39,9.72,2.24.79,4.5,1.67,7,1.17l.1.35c1.67,1.83,1.43,4.14,1.43,6.33q.06,41.43,0,82.85c0,2.21.12,4.49-1.51,6.33-38.45.28-76-4.86-111.91-19.15a79.58,79.58,0,0,1-23-13.47c-7.21-6.22-10.62-13.89-10.56-23.51C105.7,252.17,105.57,222.21,105.57,192.25Z" transform="translate(-4.64 -50.24)"/><path class="c" d="M251,338.25q0-47.76.07-95.51c16.53-4.79,32.52-11.16,48.75-16.84,30.67-10.75,61.27-21.72,91.9-32.59.89-.32,1.82-.49,2.74-.73,0,30.92.13,61.85.07,92.77,0,7.2-3.21,13.18-8.29,18.2-9.91,9.78-22.34,15.06-35.2,19.46C318.6,334.09,285.17,338.72,251,338.25Z" transform="translate(-4.64 -50.24)"/><path class="d" d="M431.25,179.27A306.55,306.55,0,0,1,460.9,169q0,74.35,0,148.7c0,2.08,0,4.15-.07,6.22-1.43.72-2.81.2-4.12-.32a26.58,26.58,0,0,0-20.37,0c-1.31.52-2.69,1-4.13.31q0-69.58-.1-139.16C432.06,182.91,432.85,180.88,431.25,179.27Z" transform="translate(-4.64 -50.24)"/><path class="c" d="M432.16,323.88q14.31-7.23,28.62,0c12.48,9.31,17,20.63,13.4,33.36-2.16,7.58-7.31,12.85-13.45,17.35a9,9,0,0,1-1.29,1.39c-6.55,4.68-21.51,3.91-27.23-1.39-8-5.68-13.76-12.78-14.46-23C416.91,339.49,422.21,330.46,432.16,323.88Z" transform="translate(-4.64 -50.24)"/><path class="d" d="M432.21,374.59a34,34,0,0,0,28.52,0c0,22.93.17,45.85.07,68.78a14.33,14.33,0,1,1-28.66,0C432.07,420.45,432.18,397.52,432.21,374.59Z" transform="translate(-4.64 -50.24)"/><path class="e" d="M251,212.35q-42.12-14.58-84.24-29.15Q94.51,158.06,22.28,132.83c-1.2-.42-2.38-.9-3.57-1.35,13.21-5.54,26.9-9.81,40.39-14.58q91.23-32.25,182.54-64.26c3.93-1.38,7.91-3.72,12.33-1.45-1.48,3.29-1.48,6.78-1.48,10.29q0,71.1,0,142.21c0,2.81.57,5.78-1.45,8.26Z" transform="translate(-4.64 -50.24)"/><path class="f" d="M251,212q0-78.31-.08-156.63c0-2.2-.08-4.28,3-4.13,13.22,4.52,26.48,8.92,39.66,13.55q91,32,182,64.11c1.49.53,2.92,1.23,4.37,1.86-15.29,5.55-30.56,11.19-45.89,16.64q-90.18,32-180.41,64A24.46,24.46,0,0,1,251,212Z" transform="translate(-4.64 -50.24)"/></svg>