<svg xmlns="http://www.w3.org/2000/svg" xmlns:xlink="http://www.w3.org/1999/xlink" viewBox="0 0 247.29 247.29"><defs><style>.a{fill:url(#a);}.b{fill:#fff;}.c{fill:url(#b);}</style><linearGradient id="a" x1="68.26" y1="-10.02" x2="163.9" y2="220.8" gradientUnits="userSpaceOnUse"><stop offset="0" stop-color="#57d163"/><stop offset="0.4" stop-color="#55d061"/><stop offset="0.58" stop-color="#4dcc5b"/><stop offset="0.72" stop-color="#41c451"/><stop offset="0.83" stop-color="#2fba43"/><stop offset="0.89" stop-color="#23b33a"/></linearGradient><linearGradient id="b" x1="144.62" y1="40.96" x2="112.21" y2="209.51" gradientUnits="userSpaceOnUse"><stop offset="0" stop-color="#57d163"/><stop offset="0.45" stop-color="#55d061"/><stop offset="0.65" stop-color="#4dcc5b"/><stop offset="0.81" stop-color="#41c451"/><stop offset="0.94" stop-color="#2fba43"/><stop offset="1" stop-color="#23b33a"/></linearGradient></defs><rect class="a" width="247.29" height="247.29" rx="33.63"/><path class="b" d="M231.09,125.74c0-.9-.16-1.79-.21-2.69-2-36.34-18.38-64.59-48.72-84.36C139.68,11,84,18.35,50.79,55.49,23.57,85.92,17.28,131.13,36.32,167.71c4.43,8.52,4.84,15.26,1,23.7-4.55,10.13-7.85,20.82-11.73,31.26-.88,2.38-1.1,4.65.87,6.56s4.29,1.65,6.63.74c.63-.24,1.25-.52,1.87-.79C47.11,224,59.27,219,71.27,213.62c3.28-1.47,5.68-1.19,8.74.53,21.54,12.1,44.63,15.91,68.89,11.68a98.68,98.68,0,0,0,82.2-97.72C231.1,127.32,231.13,126.53,231.09,125.74Z" transform="translate(-1.35 -1.35)"/><path class="c" d="M214.51,126.71c0-.75-.13-1.51-.17-2.26C212.65,94,198.92,70.26,173.45,53.67,137.81,30.44,91.1,36.6,63.22,67.76,40.38,93.29,35.1,131.24,51.07,161.93c3.72,7.14,4.07,12.8.89,19.88-3.82,8.5-6.59,17.47-9.84,26.23-.74,2-.93,3.9.73,5.51s3.6,1.38,5.56.62c.53-.2,1-.44,1.57-.66,10.15-4.33,20.35-8.55,30.42-13.06a7.24,7.24,0,0,1,7.34.45,85.11,85.11,0,0,0,57.81,9.8,82.81,82.81,0,0,0,69-82C214.52,128,214.54,127.37,214.51,126.71Zm-43,28.73c-3.22,7.38-13,12.64-21,11.42-15-2.3-27.09-10.15-38-20.06a79.78,79.78,0,0,1-24.05-39.32,21.33,21.33,0,0,1-.82-6.16c0-7.54,5.81-15.68,12.88-18.21a1.86,1.86,0,0,1,2.57,1c3.06,5.1,6.19,10.16,9.26,15.26a2.58,2.58,0,0,1-.73,3.73c-2.14,1.71-4.27,3.45-6.32,5.27-3.87,3.45-4.56,6.28-2.8,11.15,2.28,6.26,6.38,11.31,10.79,16.15a73,73,0,0,0,17.58,14.65,31.15,31.15,0,0,0,5.69,2.46,8.17,8.17,0,0,0,9.64-2.76c1.81-2.19,3.75-4.26,5.51-6.48,1.33-1.68,2.58-1.77,4.37-.64,4.7,3,9.45,5.9,14.29,8.65C172.18,152.59,172.21,153.73,171.46,155.44Z" transform="translate(-1.35 -1.35)"/></svg>